<?xml version="1.0" standalone="no"?><!DOCTYPE svg PUBLIC "-//W3C//DTD SVG 1.1//EN" "http://www.w3.org/Graphics/SVG/1.1/DTD/svg11.dtd"><svg t="1550108738756" class="icon" style="" viewBox="0 0 1024 1024" version="1.1" xmlns="http://www.w3.org/2000/svg" p-id="2582" xmlns:xlink="http://www.w3.org/1999/xlink" width="200" height="200"><defs><style type="text/css"></style></defs><path d="M512.000512 0.024559c-282.73615 0-511.974929 229.238779-511.974929 511.974929 0 282.73615 229.238779 511.973906 511.974929 511.973906 282.73615 0 511.973906-229.238779 511.973906-511.973906C1023.974417 229.263338 794.736662 0.024559 512.000512 0.024559zM512.000512 959.977935c-247.01973 0-447.977423-200.95974-447.977423-447.977423 0-247.01973 200.958717-447.978447 447.977423-447.978447s447.977423 200.95974 447.977423 447.978447C959.977935 759.018195 759.019218 959.977935 512.000512 959.977935z" p-id="2583"></path><path d="M512.000512 448.003006c-35.310168 0-63.997506 28.623892-63.997506 63.997506 0 6.67195 1.023305 13.102399 2.91642 19.147063l-85.223925 117.346498c-10.40599 14.248501-7.250117 34.247978 7.061829 44.621222 14.311946 10.500134 34.310399 7.250117 44.71639-6.999407l81.022234-111.56073c4.355187 0.936324 8.870009 1.440814 13.503535 1.440814 35.310168 0 63.997506-28.623892 63.997506-63.996482C575.996994 476.625875 547.31068 448.003006 512.000512 448.003006z" p-id="2584"></path><path d="M512.000512 256.011512c17.686807 0 31.998753-14.374368 31.998753-31.998753 0-17.749228-14.311946-31.998753-31.998753-31.998753s-31.998753 14.249525-31.998753 31.998753C480.001759 241.638168 494.313705 256.011512 512.000512 256.011512z" p-id="2585"></path><path d="M224.014806 384.006524c-17.686807 0-31.998753 14.249525-31.998753 31.998753 0 17.624385 14.311946 31.998753 31.998753 31.998753 17.686807 0 31.998753-14.374368 31.998753-31.998753C256.012535 398.255025 241.701613 384.006524 224.014806 384.006524z" p-id="2586"></path><path d="M288.011288 703.989959c-17.686807 0-31.998753 14.250548-31.998753 31.998753 0 17.625408 14.311946 31.999776 31.998753 31.999776s31.998753-14.374368 31.998753-31.999776C320.010041 718.240507 305.698095 703.989959 288.011288 703.989959z" p-id="2587"></path><path d="M799.986217 384.006524c-17.686807 0-31.998753 14.249525-31.998753 31.998753 0 17.624385 14.310923 31.998753 31.998753 31.998753 17.686807 0 31.998753-14.374368 31.998753-31.998753C831.98497 398.255025 817.673024 384.006524 799.986217 384.006524z" p-id="2588"></path><path d="M735.989735 703.989959c-17.686807 0-31.998753 14.250548-31.998753 31.998753 0 17.625408 14.311946 31.999776 31.998753 31.999776 17.685783 0 31.998753-14.374368 31.998753-31.999776C767.987465 718.240507 753.675518 703.989959 735.989735 703.989959z" p-id="2589"></path></svg>