<?xml version="1.0" standalone="no"?>
<!DOCTYPE svg PUBLIC "-//W3C//DTD SVG 1.1//EN" "http://www.w3.org/Graphics/SVG/1.1/DTD/svg11.dtd"><svg t="1547520492542" class="icon" style="" viewBox="0 0 1024 1024" version="1.1" xmlns="http://www.w3.org/2000/svg" p-id="3774" xmlns:xlink="http://www.w3.org/1999/xlink" width="950" height="300">
<defs>
    <style type="text/css">
</style>
</defs>
<path d="M245.034251 895.239428l383.063419-383.063419L240.001631 124.07997l0.070608-0.033769c-12.709463-13.137205-20.530592-31.024597-20.530592-50.731428 0-40.376593 32.736589-73.111135 73.115228-73.111135 19.705807 0 37.591153 7.819083 50.730405 20.528546l0.034792-0.035816 438.686251 438.681134-0.035816 0.034792c13.779841 13.281491 22.3838 31.915897 22.3838 52.586682 0 0.071631 0 0.106424 0 0.178055 0 0.072655 0 0.10847 0 0.144286 0 20.669762-8.603959 39.341007-22.3838 52.623521l0.035816 0.033769L343.426165 1003.661789l-0.180102-0.179079c-13.140275 12.565177-30.950919 20.313651-50.588165 20.313651-40.378639 0-73.115228-32.736589-73.115228-73.114205C219.544717 928.512229 229.432924 908.664182 245.034251 895.239428z" p-id="3775" fill="#04cbf5" opacity=".3" transform="matrix(0.9999999,0,0,0.9999999,-1316.656,-0.04269105)" xmlns="http://www.w3.org/2000/svg">
	<animate attributeName="opacity" attributeType="XML" values="0; .3; 0" begin="0s" dur="1s" repeatCount="indefinite" />
</path>
<path d="M245.034251 895.239428l383.063419-383.063419L240.001631 124.07997l0.070608-0.033769c-12.709463-13.137205-20.530592-31.024597-20.530592-50.731428 0-40.376593 32.736589-73.111135 73.115228-73.111135 19.705807 0 37.591153 7.819083 50.730405 20.528546l0.034792-0.035816 438.686251 438.681134-0.035816 0.034792c13.779841 13.281491 22.3838 31.915897 22.3838 52.586682 0 0.071631 0 0.106424 0 0.178055 0 0.072655 0 0.10847 0 0.144286 0 20.669762-8.603959 39.341007-22.3838 52.623521l0.035816 0.033769L343.426165 1003.661789l-0.180102-0.179079c-13.140275 12.565177-30.950919 20.313651-50.588165 20.313651-40.378639 0-73.115228-32.736589-73.115228-73.114205C219.544717 928.512229 229.432924 908.664182 245.034251 895.239428z" p-id="3775" fill="#04cbf5" opacity=".5" transform="matrix(0.9999999,0,0,0.9999999,-675.8707,-0.0432816)" xmlns="http://www.w3.org/2000/svg" >
	<animate attributeName="opacity" attributeType="XML" values="0; .5; 0" begin="0.2s" dur="1s" repeatCount="indefinite" />
</path>
<path d="M245.034251 895.239428l383.063419-383.063419L240.001631 124.07997l0.070608-0.033769c-12.709463-13.137205-20.530592-31.024597-20.530592-50.731428 0-40.376593 32.736589-73.111135 73.115228-73.111135 19.705807 0 37.591153 7.819083 50.730405 20.528546l0.034792-0.035816 438.686251 438.681134-0.035816 0.034792c13.779841 13.281491 22.3838 31.915897 22.3838 52.586682 0 0.071631 0 0.106424 0 0.178055 0 0.072655 0 0.10847 0 0.144286 0 20.669762-8.603959 39.341007-22.3838 52.623521l0.035816 0.033769L343.426165 1003.661789l-0.180102-0.179079c-13.140275 12.565177-30.950919 20.313651-50.588165 20.313651-40.378639 0-73.115228-32.736589-73.115228-73.114205C219.544717 928.512229 229.432924 908.664182 245.034251 895.239428z" p-id="3775" fill="#04cbf5" opacity=".6" transform="matrix(0.9999999,0,0,0.9999999,-35.0728,-0.04197922)" xmlns="http://www.w3.org/2000/svg" >
	<animate attributeName="opacity" attributeType="XML" values="0; .6; 0" begin="0.4s" dur="1s" repeatCount="indefinite" />
</path>
<path d="M245.034251 895.239428l383.063419-383.063419L240.001631 124.07997l0.070608-0.033769c-12.709463-13.137205-20.530592-31.024597-20.530592-50.731428 0-40.376593 32.736589-73.111135 73.115228-73.111135 19.705807 0 37.591153 7.819083 50.730405 20.528546l0.034792-0.035816 438.686251 438.681134-0.035816 0.034792c13.779841 13.281491 22.3838 31.915897 22.3838 52.586682 0 0.071631 0 0.106424 0 0.178055 0 0.072655 0 0.10847 0 0.144286 0 20.669762-8.603959 39.341007-22.3838 52.623521l0.035816 0.033769L343.426165 1003.661789l-0.180102-0.179079c-13.140275 12.565177-30.950919 20.313651-50.588165 20.313651-40.378639 0-73.115228-32.736589-73.115228-73.114205C219.544717 928.512229 229.432924 908.664182 245.034251 895.239428z" p-id="3775" fill="#04cbf5" opacity=".8" transform="matrix(0.9999999,0,0,0.9999999,629.0031,-0.04681491)" xmlns="http://www.w3.org/2000/svg" >
	<animate attributeName="opacity" attributeType="XML" values="0; .8; 0" begin="0.6s" dur="1s" repeatCount="indefinite" />
</path>
<path d="M245.034251 895.239428l383.063419-383.063419L240.001631 124.07997l0.070608-0.033769c-12.709463-13.137205-20.530592-31.024597-20.530592-50.731428 0-40.376593 32.736589-73.111135 73.115228-73.111135 19.705807 0 37.591153 7.819083 50.730405 20.528546l0.034792-0.035816 438.686251 438.681134-0.035816 0.034792c13.779841 13.281491 22.3838 31.915897 22.3838 52.586682 0 0.071631 0 0.106424 0 0.178055 0 0.072655 0 0.10847 0 0.144286 0 20.669762-8.603959 39.341007-22.3838 52.623521l0.035816 0.033769L343.426165 1003.661789l-0.180102-0.179079c-13.140275 12.565177-30.950919 20.313651-50.588165 20.313651-40.378639 0-73.115228-32.736589-73.115228-73.114205C219.544717 928.512229 229.432924 908.664182 245.034251 895.239428z" p-id="3775" fill="#04cbf5" opacity="1" transform="matrix(0.9999999,0,0,0.9999999,1293.082,-0.05464663)" xmlns="http://www.w3.org/2000/svg" >
	<animate attributeName="opacity" attributeType="XML" values="0; 1; 0" begin="0.8s" dur="1s" repeatCount="indefinite" />
</path>
</svg>
